Title                            : Scott Pilgrim vs. the World
Year                             : 2010
Genre                            : Action | Adventure | Comedy | Fantasy
iMDB URL                         : http://www.imdb.com/title/tt0446029/

Complete name                    : Scott.Pilgrim.vs.the.World.2010.BRRIP.720P.H264-ZEKTORM.mp4
Format                           : MPEG-4
Format profile                   : Base Media
Codec ID                         : isom
File size                        : 2.05 GiB
Duration                         : 1h 52mn
Overall bit rate                 : 2612 Kbps
Subtitles                        : English, Spanish, French (Format: VobSub) / English (Format: srt)

Video
ID                               : 1
Format                           : AVC
Format/Info                      : Advanced Video Codec
Format profile                   : High@L4.0
Format settings, CABAC           : Yes
Format settings, ReFrames        : 4 frames
Codec ID                         : avc1
Codec ID/Info                    : Advanced Video Coding
Duration                         : 1h 52mn
Bit rate mode                    : Variable
Bit rate                         : 2305 Kbps
Maximum bit rate                 : 14.8 Mbps
Width                            : 1280 pixels
Height                           : 688 pixels
Display aspect ratio             : 1.860
Frame rate mode                  : Constant
Frame rate                       : 23.976 fps
Resolution                       : 24 bits
Colorimetry                      : 4:2:0
Scan type                        : Progressive
Bits/(Pixel*Frame)               : 0.109
Stream size                      : 1.81 GiB (88%)
Title                            : Video
Writing library                  : x264

Audio #1
ID                               : 2
Format                           : AAC
Format/Info                      : Advanced Audio Codec
Format version                   : Version 4
Format profile                   : LC
Format settings, SBR             : Yes
Format settings, PS              : No
Codec ID                         : 40
Duration                         : 1h 52mn
Bit rate mode                    : Variable
Bit rate                         : 222 Kbps
Maximum bit rate                 : 259 Kbps
Channel(s)                       : 6 channels
Channel positions                : Front: L C R, Rear: L R, LFE
Sampling rate                    : 48.0 KHz
Resolution                       : 16 bits
Stream size                      : 178 MiB (8%)
Title                            : English
Language                         : English

Audio #2
ID                               : 3
Format                           : AAC
Format/Info                      : Advanced Audio Codec
Format version                   : Version 4
Format profile                   : LC
Format settings, SBR             : Yes
Format settings, PS              : No
Codec ID                         : 40
Duration                         : 1h 52mn
Bit rate mode                    : Variable
Bit rate                         : 81.6 Kbps
Maximum bit rate                 : 105 Kbps
Channel(s)                       : 2 channels
Channel positions                : L R
Sampling rate                    : 48.0 KHz
Resolution                       : 16 bits
Stream size                      : 65.6 MiB (3%)
Language                         : English
